<svg xmlns="http://www.w3.org/2000/svg" viewBox="0 0 391 182">
  <style>
    .st0{fill:#3A3738;}
  </style>
  <g class="st0">
    <path d="M42.6 111.7c-.1-.1-.2-.2-.2-.3-.2-.3-.3-.6-.3-.9-1.3-2-2.7-4.1-4-6.1-.7-1-1.3-2-1.9-3-1.9-3-3.8-6.1-5.7-9.1C26.4 85.6 22.2 79 18 72.4c-.4-.6-.4-1.2-.1-1.7h.1l.1-.1c.6-1.1 1.3-2 2.3-2.6.1 0 .1-.1.2-.1 1.1-.7 2.4-1.2 3.7-1.5 1.3-.3 2.7-.5 4-.5 1.4 0 2.6 0 3.8.1 3.2.3 6.2 1.4 8.9 3.2 2.3 1.6 4.2 3.5 5.7 5.8.2.4.5.7.7 1.1 1 1.7 1.9 3.4 2.7 5.2.8 1.8 1.5 3.6 2.1 5.5.5 1.4.9 2.9 1.3 4.3.4 1.5.6 3 .6 4.6.1 3.4-.6 6.3-2.2 8.9-1.5 2.6-3.6 4.8-6.2 6.7-.2.3-.4.6-.6.7-.1.1-.3.1-.4.2h-.1c-.2.1-.4.1-.8.1s-.8-.2-1.2-.6zm1.9-3.7c1-.7 1.9-1.5 2.7-2.4.8-.9 1.5-1.8 2.1-2.9 1.2-2.4 1.7-5.1 1.4-7.9-.1-1.3-.3-2.6-.6-3.8-.3-1.2-.7-2.4-1.2-3.6l-1.8-4.5c-.6-1.5-1.3-2.9-2.1-4.3-.3-.6-.7-1.2-1.1-1.8-.5-.7-.9-1.4-1.4-2-.9-1.2-2-2.1-3.3-2.9-1.1-.6-2.2-1.1-3.4-1.6-1.2-.5-2.4-.8-3.6-1-1-.1-2-.2-3.1-.2s-2.2.1-3.2.4c-.8.2-1.6.4-2.4.7-.4.1-.8.3-1.1.5-.4.2-.6.5-.9.8 4 6.3 8 12.6 11.9 18.9 1.8 3 3.7 5.9 5.5 8.8 1.8 2.9 3.7 5.8 5.6 8.8z"/>
    <path d="M61.3 74.4c-.1-.2-.2-.4-.3-.5-.1-.3-.2-.7-.2-1.1-.4-1.9-.5-3.8-.3-5.7.2-1.9.8-3.6 1.6-5.1.4-.6.8-1.1 1.3-1.7.5-.6 1-1.1 1.5-1.5.5-.5 1.1-.8 1.8-1.1.1 0 .2-.1.3-.1.6-.2 1.1-.3 1.7-.3.7 0 1.4.1 2 .4.7.3 1.3.6 1.8 1.1.5.5 1 1 1.4 1.7.1.3.3.5.4.7.2.4.2.9.3 1.4.1 1.6-.1 3-.6 4.4s-1.2 2.6-2.1 3.7c-.9 1.1-1.9 2-3.1 2.8-.7.5-1.5.8-2.3 1.1-.5.2-1 .3-1.6.4.7 1.7 1.7 3 3 4 1.2.9 2.3 1.2 3.3 1.1.3-.1.5-.1.8-.2l1.8-1.2c.8-.7 1.5-1.7 2.1-2.8.6-1.1 1.1-2.1 1.4-3.1.2-.5.5-.8.9-.9.4-.1.9 0 1.3.2s.7.5 1 1c0 .1 0 .1.1.2.1.4.1.8-.1 1.3-.6 1.7-1.4 3.3-2.4 4.9s-2.2 2.8-3.7 3.6c-.3.1-.5.2-.8.3-1.3.5-2.5.6-3.9.4-1.6-.3-3.1-1-4.4-2.2-1-.9-1.8-1.9-2.5-3.1-.5-.9-1-1.8-1.3-2.7 0-.7-.1-1.1-.2-1.4zm2.8-3.2c.3-.1.6-.2.8-.2.6-.2 1.2-.5 1.7-.8.8-.5 1.6-1.1 2.3-1.8.7-.7 1.2-1.5 1.7-2.4.4-.9.7-1.8.7-2.8 0-.4 0-.7-.1-.9-.2-.5-.5-.9-1.1-1-.6-.2-1.1-.2-1.6 0l-.6.3c-.7.4-1.3 1-1.9 1.6-.6.6-1 1.3-1.3 2.1-.7 1.5-.9 3.6-.6 5.9z"/>
    <path d="M100.7 64.5c-.8-1.8-1.5-3.7-1.9-5.8-.4-2.1-.5-4-.1-5.8.2-1.2.6-2.3 1.1-3.4.5-1.1 1.2-2 2.2-2.6.1-.1.3-.1.4-.2.9-.5 2-.6 3-.6.1 0 .2.1.4.1.1 0 .3 0 .4.1-.1-.4-.2-.8 0-1.2.1-.4.4-.7.6-.9.1 0 .1-.1.2-.1.2-.1.5-.2.8-.2.4.1.8.3 1.1.7.3.5.6.9.9 1.4.3.5.6.9.9 1.5.1.1.3.4.4.7.4.7.7 1.4 1.1 2.1.2.4.4.7.5 1.1l1.5 3.3c.8 1.8 1.7 3.6 2.6 5.4.9 1.8 1.7 3.6 2.6 5.4.3.5.3 1 .1 1.4-.2.4-.5.7-.9.9-.4.2-.8.2-1.2.1-.4-.1-.8-.4-1-1l-.1-.2c-.6 1.4-1.6 2.6-2.9 3.4-.2.1-.5.3-.7.4-1.1.6-2.3.8-3.5.8-1.8 0-3.4-.6-4.9-2-1.4-1.3-2.5-2.8-3.3-4.5-.2-.1-.2-.2-.3-.3zm2.3-2.1l.9 1.8c.3.6.7 1.2 1.2 1.7.4.5.9.9 1.5 1.2.5.4 1.1.5 1.7.5.8 0 1.6-.1 2.2-.4.1 0 .2-.1.3-.1.6-.3 1.1-.6 1.5-1.1.5-.5.9-1.1 1.2-1.9.3-.7.4-1.5.3-2.4-.5-1-.9-1.9-1.4-2.9-.4-1-.9-1.9-1.4-2.9-.4-.9-.8-1.9-1.3-2.8-.4-.9-.9-1.9-1.3-2.9-.7-.1-1.5-.4-2.2-.6-.7-.3-1.4-.3-2 0-.1 0-.1.1-.2.1-.8.4-1.3.9-1.7 1.7-.4.8-.7 1.8-.8 2.7-.2 1.3-.2 2.6.1 4.1.5 1.6.9 2.9 1.4 4.2z"/>
    <path d="M141.3 36.2c-.2-1.2-.5-2.5-.7-3.8-.1-.6 0-1 .3-1.4s.6-.5 1-.6c.4-.1.8 0 1.2.2.4.2.6.6.7 1.2l.1.7c.6-.9 1.2-1.6 1.9-2.2.7-.6 1.4-.9 2.3-1.1h.3c1-.1 1.9 0 2.6.4.8.4 1.4.9 1.9 1.6s.9 1.5 1.2 2.4c.1.3.2.7.2 1 .1.5.1 1 .1 1.6 0 .6-.3 1-.6 1.3-.4.3-.8.4-1.2.4-.4 0-.8-.2-1.2-.5-.3-.3-.5-.8-.5-1.3 0-.4-.1-.9-.2-1.4-.2-.5-.4-.9-.7-1.3-.3-.3-.7-.5-1-.6-.4-.1-.8.1-1.3.5-.7.7-1.2 1.4-1.6 2.3-.4.9-.8 1.8-1.1 2.8.6 2.6 1.1 5.2 1.7 7.9.2 1.2.5 2.4.7 3.6.3 1.4.5 2.9.7 4.3.1.5 0 1-.3 1.3-.3.3-.7.6-1.1.6-.4.1-.8 0-1.2-.2-.4-.2-.6-.6-.7-1.2-.2-1.3-.4-2.5-.6-3.7s-.5-2.4-.7-3.6c-.5-2.4-1-4.9-1.4-7.4-.3-1.4-.6-2.6-.8-3.8z"/>
    <path d="M216.1 44.8c.2-1 .5-2 .8-2.9.3-.9.7-1.8 1.3-2.8.5-1.1 1.1-2.3 1.7-3.6.6-1.3 1.3-2.3 2.2-3.1 1-.9 1.9-1.4 2.9-1.4h.6c.8.1 1.5.4 2.3 1 .2.1.3.1.5.2s.4.1.5.2c0-.5 0-1 .1-1.6 0-.5.1-1.1.1-1.6.1-1.2.1-2.3.2-3.4.1-1 .1-2.1.2-3 .1-1 .1-2 0-3s-.1-2.1 0-3.2c.1-.8.1-1.5.2-2.3.1-.8.2-1.5.4-2.3 0-.2.1-.6.2-1.3s.2-1.3.4-2c.2-.6.4-1.2.8-1.6.2-.2.5-.3.9-.3.2 0 .4.1.6.2.6.2 1 .5 1.2 1.1.2.5.2 1.2.1 1.8-.1.7-.2 1.3-.5 2-.2.6-.3 1.2-.4 1.6-.1.3-.1.6-.2.9-.1.8-.2 1.7-.2 2.5 0 1.1.1 2.3.1 3.5-.1 1.2-.2 2.4-.2 3.6-.1 1.2-.2 2.5-.2 3.6-.2 3.7-.4 6.8-.6 9.3-.2 2.5-.3 4.6-.4 6.2-.1 1.6-.2 3-.3 4-.1 1-.2 1.8-.2 2.3-.1.5-.1.8-.2.9 0 .1-.1.2-.1.3l-.3 2.7c-.1.9-.3 1.8-.4 2.6-.1.5-.3.9-.7 1.2-.4.2-.8.3-1.2.3-.4-.1-.8-.2-1.1-.6-.3-.3-.4-.8-.3-1.3 0-.2.1-.4.1-.7.1-.2.1-.4.1-.7-1.3.9-2.7 1.4-4.2 1.7-.6.1-1.1.1-1.6 0-.9-.1-1.8-.5-2.6-1.1-.8-.5-1.4-1.2-1.8-2-.4-.8-.7-1.7-.9-2.6-.2-.9-.3-1.9-.2-2.9 0-.7.1-1.3.1-1.9.1.1.2-.2.2-.5zm3.2 1c-.1.4-.1 1-.1 1.6v1.9c0 .6.1 1.2.3 1.7.2.5.5.9.9 1.1.4.2.7.3 1.2.4h.7c.7 0 1.4-.2 2-.5.6-.3 1.2-.7 1.8-1.2s1.1-1 1.6-1.6c.2-1.7.3-3.5.4-5.2.1-1.7.2-3.6.2-5.5-.3-.2-.4-.5-.4-.9.1-.4-.1-.8-.3-1.1-.3-.4-.6-.7-1-1-.4-.3-.8-.5-1.2-.7-.2-.1-.4-.1-.5-.1h-.4c-.6.1-1.1.6-1.5 1.3s-.8 1.4-1.1 2.1c-.5 1.3-1 2.6-1.5 3.8-.5 1.2-.9 2.5-1.1 3.9z"/>
    <path d="M255.9 57.2c.2-1.9.4-3.8.8-5.6.3-1.9.6-3.7.9-5.6.3-1.8.5-3.7.7-5.6.2-1.9.3-3.7.3-5.6 0-.6.2-1 .6-1.2.4-.2.8-.3 1.2-.3.4 0 .8.2 1.1.5.3.3.5.7.5 1.3 0 1.8-.1 3.6-.3 5.3v.3c-.2 1.9-.4 3.7-.7 5.6-.3 1.8-.6 3.7-.9 5.6-.3 1.9-.5 3.7-.7 5.6-.1.6-.3 1-.7 1.3-.4.2-.8.4-1.2.3-.4 0-.8-.2-1.1-.6-.4-.3-.5-.7-.5-1.3zm4.6-41.8c.1-.7.3-1.2.7-1.5.4-.3.8-.5 1.3-.4.5 0 .9.3 1.2.6.2.3.4.7.4 1.1v.2c0 .3-.1.6-.3.9-.3.7-.9 1-1.6.9-.5 0-.9-.3-1.2-.6-.4-.2-.5-.7-.5-1.2z"/>
    <path d="M285.3 55.8c.5-1.9 1.3-3.8 2.2-5.7 1-1.9 2.2-3.4 3.6-4.6.9-.7 1.9-1.4 3.1-1.9 1.1-.5 2.2-.7 3.3-.6.1 0 .3.1.4.1 1 .3 1.9.8 2.7 1.5.1.1.1.2.2.3.1.1.2.2.2.3.2-.4.4-.7.8-.9.4-.2.7-.3 1-.3.1 0 .1 0 .2.1.3 0 .5.2.7.4.3.3.4.7.4 1.2 0 .6-.1 1.1-.2 1.6s-.2 1.1-.3 1.7c0 .2 0 .4-.1.8-.2.8-.3 1.5-.5 2.3l-.3 1.2c-.3 1.2-.6 2.3-1 3.5-.5 1.9-1 3.9-1.5 5.8s-.9 3.8-1.4 5.8c-.1.6-.4 1-.8 1.2-.4.2-.8.2-1.2.1-.4-.1-.7-.3-1-.7-.3-.4-.3-.8-.2-1.4l.1-.3c-1.4.7-2.9 1-4.4.7-.3 0-.5-.1-.8-.2-1.2-.3-2.3-.8-3.2-1.6-1.4-1.1-2.2-2.7-2.5-4.7-.2-1.8-.1-3.7.3-5.5.2.1.2-.1.2-.2zm3.1 0c-.2.6-.3 1.3-.5 2-.1.7-.2 1.4-.2 2 0 .7.1 1.3.3 1.9.2.6.5 1.1 1 1.5.6.6 1.2.9 2 1.2.1 0 .2.1.3.1.6.2 1.2.2 1.9.2.7-.1 1.5-.3 2.1-.6.7-.4 1.3-.9 1.8-1.6.3-1 .5-2.1.8-3.1.3-1 .5-2.1.8-3.1l.9-3c.3-1 .5-2 .8-3.1-.5-.6-.9-1.2-1.3-1.9s-.9-1.1-1.6-1.3h-.2c-.8-.2-1.6-.1-2.4.2-.9.4-1.6.9-2.4 1.6-1 .8-1.8 1.9-2.5 3.2s-1.2 2.4-1.6 3.8z"/>
    <path d="M326.8 62c.4-1.2.8-2.4 1.2-3.7.2-.6.5-.9.9-1.1s.8-.2 1.2 0c.4.1.7.4.9.7.2.4.3.8.1 1.4l-.2.7c.9-.5 1.8-.8 2.7-1.1.8-.2 1.7-.2 2.5.1.1 0 .2.1.3.1.9.3 1.7.9 2.1 1.6.5.7.8 1.5.9 2.4s.1 1.8-.1 2.7c-.1.3-.1.7-.2 1-.2.5-.4 1-.6 1.4-.3.5-.7.8-1.1.8-.5.1-.9 0-1.2-.3-.4-.2-.6-.6-.8-1-.2-.5-.1-.9.2-1.4.2-.3.4-.8.5-1.3.1-.5.1-1 0-1.4-.1-.4-.3-.8-.6-1-.3-.3-.7-.3-1.3-.2-.9.3-1.7.7-2.5 1.3-.8.6-1.6 1.2-2.3 1.9-.7 2.6-1.4 5.2-2.2 7.7-.3 1.2-.7 2.3-1.1 3.5-.4 1.4-.9 2.8-1.4 4.1-.2.5-.5.9-.9 1-.4.2-.8.2-1.2.1-.4-.1-.7-.4-.9-.7-.2-.4-.3-.8-.1-1.4l1.2-3.6c.4-1.2.7-2.4 1.1-3.5.7-2.4 1.4-4.8 2.2-7.2 0-1.2.4-2.3.7-3.6z"/>
    <path d="M366 75.4c.2-.5.6-.8 1-.9.4-.1.8 0 1.2.1.4.2.7.5.9.9.2.4.2.8 0 1.3-1.1 2.4-2.3 4.8-3.4 7.2-1.1 2.4-1.9 4.9-2.4 7.5-.1.7-.2 1.4-.3 2.3 0 .8.1 1.5.5 2.2.2.3.5.6.7.9.3.3.6.5.9.7.3.2.6.3 1 .4.3.1.7 0 1.1-.1.7-.3 1.4-.8 2-1.4.6-.7 1.1-1.4 1.6-2.2l.6-1.2.6-1.2c.3-.9.7-1.6 1-2.3.4-.8.8-1.6 1.2-2.5.4-.8.8-1.6 1.3-2.4.2-.3.3-.6.5-1 .2-.3.4-.7.5-1 .1-.1.1-.2.2-.4.1-.1.1-.3.2-.5l.1-.2s0 .3.1.6c-.1-.5-.1-1 .2-1.4.3-.4.6-.7 1-.8.4-.1.8-.1 1.1 0 0 0 .1 0 .1.1.3.2.5.5.7.9.1.8 0 1.6-.4 2.5-.4.8-.8 1.6-1.2 2.3-.6 1.2-1.2 2.3-1.7 3.4s-1.1 2.3-1.7 3.5l-.7 1.5c0 .3-.1.5-.2.6-1.3 2.7-2.7 5.3-4.1 7.8-.9 1.7-1.8 3.4-2.6 5.1-.4.9-.9 1.8-1.3 2.8-.4.8-.7 1.6-1.1 2.4l-1.2 2.4c-.8 1.6-1.8 3-2.9 4.4-1.1 1.3-2.4 2.3-3.9 3.1-1.5.7-3.1.8-4.8.1-.1 0-.3-.1-.5-.2-.8-.4-1.4-.9-1.9-1.6-.6-.8-1-1.7-1.3-2.7-.3-1-.4-2-.4-3 0-1.1.1-2 .4-2.9.2-.5.4-.9.8-1.1.4-.2.8-.3 1.2-.2.4.1.8.3 1.1.6.3.3.4.8.2 1.3-.2.6-.3 1.3-.3 2.1s0 1.6.2 2.4c.2.7.5 1.4 1 1.9.1.2.3.3.5.4.4.2.9.2 1.5.2s1.2-.3 1.7-.6c.5-.4 1-.8 1.5-1.3s.9-1 1.2-1.6c.4-.6.7-1.1 1-1.6.4-.8.9-1.6 1.2-2.4l.6-1.2c.5-1.2 1.1-2.4 1.7-3.6.5-1.1 1-2.1 1.6-3.1.5-1 1.1-2 1.7-3h-.1c-1.1.1-2.1-.1-3-.6-.1 0-.1-.1-.2-.1-1-.5-1.8-1.2-2.4-2-.7-.8-1.1-1.8-1.5-2.9-.3-1.1-.4-2.2-.3-3.2.3-3 1.2-6 2.5-8.8 1.3-3.2 2.6-6 3.9-8.7z"/>
    <path d="M376.4 155.6c-8.9-7.4-18.1-14.1-27.6-20.2-.7-21.5-3.8-25.9-7.5-30.9l-.3-.5v.3c-.9-1.6-3.6-.9-3.9-3.1l.1-.1c-.6-.2-1.3-.3-2-.3-3.8 0-6.8 3.1-6.8 6.8 0 .3.1.6.1.9 0 .1-.2 2.2 2.4 12.2.5 2.1 1.1 3.8 1.7 5.2-6.2-3.4-12.6-6.5-19.1-9.3.2-2.2.3-7.8-2.2-15.4-1.9-5.7-4.4-9.8-6.3-12.3-.9.1-2 0-2.8.2-.2-1.1-.1-2.1.3-3.1-.2-.2-.4-.5-.7-.7-.5-.1-.7-.3-.9-.6-1-.6-2.1-1-3.4-1-3.8 0-6.9 3.1-6.9 6.9 0 .4.1.7.1 1v.4c.9 6.2 3.6 11.9 8.9 19.1-6.6-2.4-13.4-4.6-20.2-6.5-3.5-16.6-9.4-25.7-11.9-29.3 0 .4-.1.8-.3 1.4-1.4-.7-1.8-1.7-1.2-3.5l.4.4c-.8-1.2-1.9-2.2-3.1-2.9-.3.1-.7.2-1.2.1-1.3 0-2.9.8-3.6-.8v-.2c-4.3.4-7.7 4-7.7 8.5 0 .8.1 1.5.3 2.3 0 .1.1.4.3.9 0 .1.1.2.1.2 1.2 3.2 5 12.7 11.5 19.1-7.4-1.5-14.8-2.7-22.3-3.5-7.3-17.8-11.1-19.3-16-23.6-1.3-1.1-3.5-2.5-4.4-3.2 0 0-3.8-2.6-6.3-2.6-5 0-9 4.1-9 9 0 2 .7 3.8 1.7 5.3.1.1.2.3.4.4.2.3.5.6.7.8 4 4.5 15.6 9.8 20 12.9-3.2-.1-12.9-.7-16.1-.7-7.3 0-14.5.3-21.7.9-7.5-10.4-12.2-13-18.7-16.5-2.1-1.2-6.1-4.6-10.3-7.5-.6 2-2.2 1.4-4.4 1.7 1.3-1.4 2.4-1.9 3.6-2.2-3.1-2-6.3-3.5-9.1-3.5-4.6.1-8.3 3.7-8.3 8.3 0 2 .7 3.8 1.9 5.2.2.3 4.9 7 13.6 11.6 4 2.2 10.1 3.9 14.2 4.8-8.8 1.4-17.5 3.2-26.1 5.5-2.2-3.4-11.7-17.3-21.6-21.4-.1 0-.3-.1-.4-.2-1.4-.8-2.9-1.2-4.5-1.2-5.2 0-9.4 4.2-9.4 9.4 0 2.9 1.4 5.5 3.5 7.3.1 0 .1.1.2.1.8.6 1.7 1.1 2.7 1.5 5.8 2.9 14.6 6.2 18.7 7.7-7.7 2.4-15.3 5.2-22.7 8.3-.9-.9-13.8-15-19.9-18.9-1.5-1.1-3.4-1.7-5.4-1.7-5.2 0-9.4 4.2-9.4 9.4 0 2.7 1.2 5.2 3 6.9.2.2.4.4.7.5.2.2.4.3.6.5 5.1 3.5 15.7 6.7 20.3 7.9-5.8 2.7-11.5 5.7-17.2 8.9-1.2-1.5-4.1-4.8-8.4-7.7-3.2-2.2-7.2-3.7-11.7-5.4-1.3-.5-2.6-1-4-1.5-.3-.2-.7-.3-1-.4-.1 0-.2-.1-.3-.1-.7-.2-1.4-.3-2.2-.3-4.5 0-8.2 3.7-8.2 8.2 0 2.4 1.1 4.6 2.8 6.1 3.3 3.4 16.4 7 21.3 8.2-3.5 2.2-6.8 5.4-10.4 7-13.4 1.1-21.7 3.2-27.5 6.2.3 1.7-.2 2.7-1.4 3.3-.3.1-1.1-.1-1.2-.3-.1-.7 0-1.2.3-1.7-.4.2-.7.5-1.1.7-.3 1.8-1.9 2.8-3 4.2-.6-.6-.8-.8-.9-.8-.5.5-.9 1-1.3 1.5-1.1 1.1-1.7 2.6-1.7 4.2 0 2.6 1.7 4.8 4 5.6.6.2 1.3.4 2 .4.2 0 .4 0 .6-.1.6 0 1.3.1 2 .1 9.3 0 19.5-7.5 37.8-24.1 3.9-2.6 7.9-5 11.9-7.3-.4.8-.7 1.5-1.1 2.3-1.1 2.4-2.8 5.7-3.7 7.3-1.6 3-3.8 8.4-3.8 14.9 0 3.8 3.1 6.9 6.9 6.9 3.8 0 6.9-3.1 6.9-6.9.3-3.8 1.6-8.7 2.7-12.7.4-1.5.8-2.9 1.1-4.2h-.3c-1.3-.2-2-1.2-2.1-2.3-.1-.7.7-1.3 1.8-1.4.5.1.9.4 1.2.8.3-3.5-.6-7.6-1-9.4 4.5-2.4 14.2-7.1 18.8-9.3-1.5 3.6-9 12.6-10.5 19.2-.1.3-.2.7-.2 1v.2c0 .2-.1.5-.1.7 0 3.5 2.9 6.4 6.4 6.4 2.6 0 4.8-1.5 5.8-3.7.5-.9 1-2.1 1.4-3.5-.4.2-.9.3-1.2.4-1-.1-2-.5-2-1.5 0-1.2 1.1-2.1 2.2-2 .5.1 1.3.2 1.8.6 1.6-6.2 2.7-14.5 3.3-20.3 4.2-1.6 20.2-7.3 24.4-8.7-.8 1.6-5.7 4.3-9.1 7.8-2 2.1-5.2 7.3-6.3 9.6-.4.9-.6 1.8-.6 2.8 0 3.8 3.1 6.9 6.9 6.9 2.8 0 5.1-1.6 6.2-4 .7-1.1 1.5-2.4 2.4-3.7 4.5-6.8 9.9-15.2 12.7-22.4 5.5-1.3 18.5-3.6 24.1-4.5-6.3 6.4-18.7 18.3-19.7 25.5-.1.3-.1.7-.1 1v.4c0 3.9 3.2 7.1 7.1 7.1 2.1 0 3.9-.9 5.2-2.3 6-5.6 13.5-17.9 20.2-32.9 2.1-.2 4.9-.3 7.8-.4.3-.2.7-.3 1-.4 1.5-.6 2.1-2.9 4.2-2.3.3.1.7.9.6 1.2-.3.7-.7 1.1-1.2 1.4 3.3-.1 6.5-.2 8.8-.2-3.3 3.1-6.6 5.8-9.4 8.3-.1.7-.6 1-1.3 1.1-2.9 2.7-5.3 5.2-6.6 7.9-.7 1.5-1.4 3.1-2.3 4.7-.4.9-.7 1.9-.7 2.9 0 3.6 2.8 6.5 6.3 6.8 0-1.2.8-1.9 2.4-2.5 1.3-.5 2.4 0 2.8.7h.1l.1-.1.1-.1c5.9-5.4 15.4-16.2 18.1-29.4 6.9.3 21.5 1.3 28.3 2.2-6.9 4.7-10.3 6.5-15.4 11.8-2.2 2.2-8.2 9.9-10 12.3-.8 1.2-1.3 2.7-1.3 4.3 0 4.3 3.5 7.8 7.8 7.8 2 0 3.7-.8 5.1-1.9 3.6-2.6 19.8-16.8 24.2-32.5 9.2 1.9 20.1 5 29 7.9-15.4 6.7-23.6 15.3-29.7 22.9-1.3 1.3-2 3.1-2 5.1 0 4.1 3.4 7.5 7.5 7.5 1.5 0 2.8-.4 4-1.2 5-2.1 21.5-10.4 29.6-31.1 4.2 1.5 8.3 3.2 12.4 5l-.3-.6c-.1-.2.4-.9.6-.9 1.7-.1 2.1 1.4 3 2.6-.2.1-.5.1-.7.1 1.3.6 2.7 1.1 4 1.8-8.7 4.1-19.5 12.2-26.1 19.6-1 .8-1.7 1.9-2 3.2.2.1.3.2.4.3.9 1.3 2.8 2 3.1 5.4-1.2-2.1-2.3-2.9-3.5-3.5.4 2.9 2.9 5 5.8 5 .6 0 1.3-.1 1.8-.3v-.1c.5-.2 1-.4 1.5-.7 9.2-3.3 23.4-16.1 28.5-24.3 6.3 3.3 12.6 6.9 18.7 10.7-10 2.9-16.9 7.2-26.2 14.6-.5.3-1 .7-1.5 1.1.2 0 .4.1.7.2.1 1.7.4 3.5.3 5.2 0 .5-1.4.6-2 0-1.3-1.1-1.1-2.4-.6-3.7-.6 1-1.1 2.1-1.3 3.2.1.3 0 .6-.1.9 0 .3-.1.5-.1.8 0 5 4.1 9 9 9 .8 0 1.5-.1 2.2-.3 6.6-1.8 22-6.1 32.9-22.1 4.7 3.4 9.4 6.9 13.9 10.6.2.2.3.3.5.4.3.2.6.3 1 .3 1.2 0 2.1-.9 2.1-2.1-.3-.5-.7-1.2-1.2-1.5zM210.1 80.2c.1-2-2.1-2.5-.7-3.9.4-.4 1.5-.7 1.6-.5 1.1 1.1.4 2.2-.9 4.4zm4.5-5.5c-.5 0-1-.3-1.5-.5.4-.4.7-1 1.2-1.3.6-.4 1.1-.2 1.4.5-.3.7-.4 1.4-1.1 1.3zm3.7 5c-1.5.8-1.9 0-2-1.4 0-.4 0-.8.1-1.2 1.2 0 2.7-.6 3.4.6.6 1-.8 1.6-1.5 2zM116.2 91.2c-.7-.2-.8-.9-.6-1.5.1-.3.1-1 .8-.7.7.2 1 .7 1 1.4.1.9-.6 1-1.2.8zm4.2-5c-.2 0-.6-.2-.7-.4-.2-.4-.1-.9.6-.6.2.1.4.3.7.5-.3.2-.5.5-.6.5zm-39.4 19c-.2.8-.7 1-1.4 1s-1.2-.4-.8-1.1c.3-.4 1-.7 1.5-.7.4-.1 1 .2.7.8zm3.9 5.8c-1-.2-1.7-.8-1.6-1.9 0-.6.2-1.2.8-1.2 1.5.4 1.5 1.4 1.7 2.3 0 .6-.5.9-.9.8zm-19.3 9.5c-1.1-.6-2.8-.7-2.9-2.5 0-.6.4-1.4 1.1-1.1 1.1.6 2.1 1.5 3 2.1-.1 1.1-.5 1.8-1.2 1.5zm-15.2 38.8c-.3 0-.8-.4-.9-.7-.2-.7.4-1 1-1.2.7-.3.7.3.8.7 0 .5-.1 1.2-.9 1.2zm3.5-4.2c.1-1.7.8-2.7 1.7-3.4.1-.1 1 .6.9.8-.2 1.2-1 2-2.6 2.6zm30.6-8.1c-.8 0-1-.6-1.1-1.2-.1-.6-.1-1.4.6-1.4.8-.1 1.4.6 1.4.6.1 1.5 0 2.1-.9 2zm91.9-25.8c-.5-1.7-2.6-2.8-.6-4.3.3-.3 1.1-.5 1.2-.3 1.3 1.5-.4 2.7-.6 4.6zm31.1-3.7c-.3-.5-.7-.9-.9-1.5-.2-.7.1-1.3.9-1 .5.2.9.7 1.6 1.3-.7.5-1.1.9-1.6 1.2zM229.3 81h-6c1.3-2.3 5.7-3.4 6.9-1.9.7.9.3 1.7-.9 1.9zm-2.4 51c.5-3.3 1.7-4.9 1.1-7.2 3.4 2.9 1 4.5-1.1 7.2zm17.5-19.6c1.2-1.8 1.8-3.3 4.1-3.5-.6 2.1-1.6 3.1-4.1 3.5zm15.1-8.6c-.1.3-.7.8-1.1.7-.6 0-1.3-.3-1.2-1.1.2-.7.7-1 1.4-.9.9 0 1.1.6.9 1.3zm5.4 43.1c-.6-.3-2.3.1-1.4-1.5.5-.8.9-2.4 2.3-1.7.9.4 1.5 1.6 2.1 2.4-1 1.6-2.1 1.4-3 .8zm11-11.2c-.7.3-1.5.6-2.1.4-.6-.2-.6-1 0-1.4.6-.5 1.3-.7 2.2 0-.1.3 0 1-.1 1zm3.7 3.2c-.8 0-1.6.6-3 1.2.2-2.2-.1-4.1 2.4-3.8.9.1 2.1.2 2.3 1.3.4 1.4-.6 1.3-1.7 1.3zm54.7-32.5c-.2-2-.8-3.5.7-4.7.1-.1.8.1.8.2.5 1.6.5 3-1.5 4.5zm-6.1 51.4c-.2.6-.8 1-1.4.5-.6-.4-.4-1.1 0-1.6s.7-1 1.7-.5c-.1.5-.1 1.1-.3 1.6zm6.4.2c-.5.8-1.2.7-1.5.1-.4-.6-.7-1.5-.5-2.1.1-.7 1-.7 1.5-.4 1.1.6.5 1.6.5 2.4zm6.9 1.4c-.6.6-1.1 0-1.4-.5-.6-1-1.1-2 0-2.9.6-.5 1.1 0 1.2.1 1.2 1.4.9 2.5.2 3.3z"/>
  </g>
</svg>
